<svg fill="#fff" width="743.25" height="116.48" version="1.1" viewBox="0 0 743.24707 116.47982" xmlns="http://www.w3.org/2000/svg"><path d="m257.49 108.49v-7.9865l2.48-0.0935 2.48-0.0935 0.0818-26.8 0.0818-26.8h-5.1236v-16.32h27.831l1.0025 2c0.5514 1.1 1.048 2.0505 1.1036 2.1123 0.0556 0.0618 0.58817-0.25922 1.1835-0.71332 1.8574-1.4167 6.3613-3.3268 9.1933-3.8988 5.3308-1.0767 12.212-0.13915 17.446 2.3768 10.88 5.23 16.992 18.206 15.589 33.096-0.81261 8.6224-3.7667 15.197-9.1073 20.269-5.0826 4.8268-11.134 7.1616-18.548 7.1561-5.4596-4e-3 -10.621-1.1867-13.729-3.1459-0.77256-0.48703-1.5847-0.99439-1.8047-1.1275-0.31448-0.19024-0.4 1.0621-0.4 5.8569v6.0989h6.72v16h-36.48zm41.6-32.461c5.0175-2.4725 7.198-13.491 4.3353-21.908-2.0108-5.9122-5.9603-8.6185-9.9353-6.8081-1.4571 0.6636-3.3569 2.6352-4.2768 4.4382-1.4401 2.8229-1.7996 4.8134-1.778 9.8448 0.0185 4.3071 0.10817 5.0651 0.87314 7.3816 1.397 4.2303 3.9358 7.1796 6.7362 7.8252 1.2832 0.29586 2.2494 0.111 4.0454-0.77403zm216.13 17.261c-12.662-1.9669-22.312-10.354-25.377-22.054-1.5449-5.8984-1.6974-13.931-0.36714-19.334 3.5326-14.35 15.605-23.106 31.856-23.106 8.5632 0 15.717 2.285 21.52 6.8744 4.2498 3.3605 7.414 8.3952 8.5507 13.606 1.0608 4.8625 0.9849 12.646-0.16304 16.72l-0.33811 1.2h-38.45l0.204 1.02c0.36154 1.8077 1.6978 4.3218 2.9769 5.6009 2.9741 2.9742 8.0782 3.9578 14.618 2.8173 3.4858-0.60786 6.3152-1.7365 9.3972-3.7484l2.4193-1.5793 0.70774 0.74481c1.7364 1.8274 9.4361 10.866 9.4332 11.074-3e-3 0.12698-1.1178 1.061-2.48 2.0755-2.93 2.1822-8.232 4.9605-11.61 6.0836-6.525 2.1695-16.322 3.0275-22.899 2.0057zm15.872-39.198c0-1.7722-0.67833-4.1109-1.6257-5.6047-1.3594-2.1435-3.6863-3.1729-7.1743-3.1738-1.645-3.2e-4 -2.9763 0.18185-3.7247 0.50994-2.7685 1.2137-5.16 4.5269-5.6036 7.7631l-0.19869 1.4497h18.327zm130.69 39.198c-12.662-1.9669-22.312-10.354-25.377-22.054-1.5449-5.8984-1.6974-13.931-0.36714-19.334 3.5326-14.35 15.605-23.106 31.856-23.106 8.5632 0 15.717 2.285 21.52 6.8744 4.2499 3.3605 7.414 8.3952 8.5507 13.606 1.0608 4.8625 0.9849 12.646-0.16304 16.72l-0.33811 1.2h-38.45l0.204 1.02c0.36154 1.8077 1.6978 4.3218 2.9769 5.6009 2.9741 2.9742 8.0782 3.9578 14.618 2.8173 3.4858-0.60786 6.3152-1.7365 9.3972-3.7484l2.4193-1.5793 0.70774 0.74481c1.7364 1.8274 9.4361 10.866 9.4332 11.074-3e-3 0.12698-1.1178 1.061-2.48 2.0755-2.93 2.1822-8.232 4.9605-11.61 6.0836-6.525 2.1695-16.322 3.0275-22.899 2.0057zm15.872-39.198c0-1.7722-0.67834-4.1109-1.6257-5.6047-1.3594-2.1435-3.6863-3.1729-7.1743-3.1738-1.645-3.2e-4 -2.9763 0.18185-3.7247 0.50994-2.7685 1.2137-5.16 4.5269-5.6036 7.7631l-0.19868 1.4497h18.327zm46.4 39.457c-7.7643-1.0448-11.931-4.3779-13.595-10.877-0.95949-3.7451-1.1578-6.9132-1.3446-21.476l-0.18982-14.8h-6.3102v-16h6.3852l0.0874-5.6457 0.0874-5.6457 10.846-3.4743c5.9653-1.9108 11.041-3.4743 11.28-3.4743 0.3552 0 0.43402 1.6561 0.43402 9.12v9.12h11.52v16h-11.52l-0.0781 11.92c-0.043 6.556-0.0401 12.923 6e-3 14.149 0.13974 3.6817 1.3328 5.276 3.9559 5.2866 0.9911 4e-3 5.2486-1.0591 7.0758-1.7668 0.524-0.20297 0.56 0.28757 0.56 7.6325v7.8494l-1.04 0.33978c-3.5387 1.1561-14.618 2.2191-18.16 1.7424zm-697.76-0.93286c-5.2146-0.97906-9.4347-2.6484-13.257-5.2441-9.3106-6.3227-14.03-17.476-12.852-30.377 1.0889-11.932 6.2099-20.019 15.532-24.526 4.8006-2.3213 7.3982-2.8615 13.778-2.865 5.156-3e-3 5.5519 0.0418 7.5829 0.85402 2.6016 1.0404 5.1288 2.6235 6.9429 4.3492 1.2978 1.2346 1.3638 1.2592 1.6029 0.59846 0.13716-0.37903 0.58695-1.6612 0.99953-2.8492l0.75014-2.16h14.602v27.52h-18.148l-0.20466-2.2021c-0.41375-4.4518-2.1608-8.2493-4.4301-9.6293-2.5219-1.5336-6.2272-0.90831-8.9099 1.5037-3.8252 3.4392-5.8325 11.62-4.2972 17.514 1.6013 6.1478 5.7951 9.7511 11.67 10.027 5.0455 0.23676 9.098-1.2654 12.96-4.8038 1.1375-1.0423 2.2162-1.8036 2.3972-1.6917 0.181 0.11186 2.6385 2.8803 5.4611 6.152l5.132 5.9487-1.0549 1.1129c-2.6705 2.8172-7.926 6.1838-12.8 8.1993-5.1497 2.1296-8.622 2.8026-15.135 2.9336-4.1983 0.0844-6.4541-0.0145-8.32-0.3648zm67.597 2e-3c-11.446-1.7815-20.697-8.3112-24.896-17.571-2.2578-4.9795-3.2305-11.532-2.6025-17.53 0.45526-4.3483 1.2352-7.1942 2.9543-10.779 5.7168-11.923 18.579-18.664 33.548-17.582 14.44 1.0435 25.278 9.0099 29.116 21.402 1.234 3.9843 1.4754 5.8319 1.4634 11.2-0.01 4.3194-0.13803 5.7857-0.7054 8.0598-1.3978 5.6024-3.7687 9.9828-7.3904 13.654-7.4346 7.5369-19.436 11.023-31.487 9.1476zm8.5071-15.618c1.481-0.61879 3.5978-3.1588 4.3842-5.2607 1.3464-3.5985 1.6925-5.791 1.6771-10.623-0.0164-5.1428-0.62871-8.2785-2.2404-11.474-1.7032-3.3768-5.0969-5.3633-7.7863-4.5575-4.3375 1.2995-7.0929 7.6325-7.0672 16.243 0.0224 7.5149 2.4139 13.398 6.2171 15.293 1.8322 0.913 3.2679 1.0261 4.8156 0.37944zm347.26 15.616c-5.2146-0.97906-9.4347-2.6484-13.257-5.2441-9.3106-6.3227-14.03-17.476-12.852-30.377 1.0889-11.932 6.2099-20.019 15.532-24.526 4.8006-2.3213 7.3983-2.8615 13.778-2.865 5.156-3e-3 5.5519 0.0418 7.5829 0.85402 2.6016 1.0404 5.1288 2.6235 6.9429 4.3492 1.2978 1.2346 1.3638 1.2592 1.603 0.59846 0.13715-0.37903 0.58694-1.6612 0.99952-2.8492l0.75014-2.16h14.602v27.52h-18.148l-0.20467-2.2021c-0.41376-4.4518-2.1608-8.2493-4.4301-9.6293-2.5219-1.5336-6.2272-0.90831-8.91 1.5037-3.8252 3.4392-5.8324 11.62-4.2972 17.514 1.6013 6.1478 5.7951 9.7511 11.67 10.027 5.0455 0.23676 9.098-1.2654 12.96-4.8038 1.1375-1.0423 2.2162-1.8036 2.3972-1.6917 0.18099 0.11186 2.6385 2.8803 5.4611 6.152l5.132 5.9487-1.0549 1.1129c-2.6705 2.8172-7.926 6.1838-12.8 8.1993-5.1497 2.1296-8.622 2.8026-15.135 2.9336-4.1983 0.0844-6.4541-0.0145-8.32-0.3648zm147.86-0.14057c-3.4169-0.61161-6.2812-1.8674-8.87-3.8887-0.64134-0.50074-1.2337-0.91044-1.3163-0.91044-0.0827 0-0.53802 0.864-1.0119 1.92l-0.86166 1.92h-27.484v-16h5.12v-59.52h-5.12v-16h29.44v34.885l1.9408-1.3248c6.6359-4.5296 16.821-5.3693 25.009-2.062 3.1608 1.2767 5.4087 2.7928 8.0982 5.4618 4.0794 4.0482 6.6085 8.689 8.2246 15.091 0.96275 3.8141 1.0385 13.21 0.13958 17.324-1.6945 7.7544-5.0168 13.687-9.9 17.677-2.309 1.8869-6.8397 4.1698-9.832 4.9541-2.3941 0.6275-11.032 0.92865-13.576 0.47329zm1.416-16.336c5.6256-2.8354 7.6103-15.582 3.7094-23.823-4.1016-8.6655-12.056-7.0168-14.778 3.0628-0.82953 3.0725-0.75606 9.2803 0.14871 12.561 0.89145 3.2322 1.6814 4.7466 3.477 6.6663 2.2547 2.4105 4.702 2.9147 7.4426 1.5334zm-460.8 7.3904v-7.9865l2.48-0.0935 2.48-0.0935 0.0833-14.48 0.0833-14.48h-5.1266v-16h28.16v45.12h5.76v16h-33.92zm40.32 0v-7.9865l2.48-0.0935 2.48-0.0935 0.0833-14.48 0.0833-14.48h-5.1266v-16.007l13.001 0.0836 13.001 0.0836 1.3052 3.5478 1.3052 3.5478 2.894-2.9378c2.3785-2.4145 3.3785-3.1758 5.614-4.2739 3.666-1.8007 6.6353-2.4002 10.72-2.1642 11.046 0.63827 17.065 5.7365 19.586 16.59 0.44714 1.9253 0.57175 4.7747 0.71767 16.41l0.17658 14.08 2.8 0.0925 2.8 0.0925v15.975h-30.697l-0.0931-19.6c-0.0851-17.928-0.14178-19.722-0.66407-21.035-0.80993-2.0361-2.0046-3.1455-4.0176-3.7307-3.1121-0.90469-6.3493 0.27053-7.8634 2.8547-1.6 2.7308-1.7851 4.3213-1.7851 15.339v10.173h8.64v16h-37.44zm157.12-0.0135v-8h5.12v-29.12h-5.12v-16h23.031l0.45098 1.04c0.24806 0.572 1.0528 2.326 1.7883 3.8977l1.3373 2.8577 1.1065-1.9634c3.1887-5.6584 8.6108-8.7121 15.469-8.7121h2.2568v21.666l-3.6 0.36937c-6.1871 0.63482-8.8896 1.8166-11.239 4.9146-1.823 2.4044-2.1214 4.2439-2.1214 13.078v7.9715h6.08v16h-34.56zm50.56 0.0135v-7.9865l2.48-0.0935 2.48-0.0935 0.0833-14.48 0.0833-14.48h-5.1265v-16h28.16v45.12h5.76v16h-33.92zm-234.68-58.93c-3.4572-0.81161-7.5106-4.146-9.0031-7.4061-2.6011-5.6816 0.20111-12.96 6.0558-15.73 6.8183-3.2256 15.08-0.49144 18.288 6.0521 0.86848 1.7714 0.94128 2.1924 0.94084 5.44-6.4e-4 3.7672-0.32694 4.8194-2.3187 7.4745-2.5231 3.3634-9.0698 5.3183-13.963 4.1695zm248 0c-3.4572-0.81161-7.5106-4.146-9.0031-7.4061-2.6011-5.6816 0.20109-12.96 6.0558-15.73 6.8183-3.2256 15.08-0.49144 18.288 6.0521 0.86848 1.7714 0.94128 2.1924 0.94083 5.44 0 3.7672-0.32694 4.8194-2.3187 7.4745-2.5231 3.3634-9.0698 5.3183-13.963 4.1695z"/></svg>
